<?xml version="1.0" encoding="UTF-8" standalone="no"?>
<!-- Created with Inkscape (http://www.inkscape.org/) -->

<svg
   width="100mm"
   height="100mm"
   viewBox="0 0 100 100"
   version="1.1"
   id="svg1"
   xml:space="preserve"
   xmlns="http://www.w3.org/2000/svg"
   xmlns:svg="http://www.w3.org/2000/svg"><defs
     id="defs1" /><g
     id="layer2"><path
       style="baseline-shift:baseline;display:inline;overflow:visible;opacity:1;vector-effect:none;enable-background:accumulate;stop-color:#000000;stop-opacity:1"
       d="m 44.410156,29.169922 c -3.416025,0.02314 -6.530103,2.388451 -9.128906,5.505859 -2.598803,3.117408 -4.706035,7.035492 -6.058594,10.400391 -3.664329,9.116139 -3.830436,15.467077 -2.738281,19.853515 1.092155,4.386439 3.459006,6.791855 4.619141,7.955079 5.653507,5.668564 14.179687,5.605468 14.179687,5.605468 h 0.0098 0.01172 c 8.021451,-0.331463 12.621946,-3.877659 15.935547,-9.046875 1.851191,-2.887857 2.821027,-7.103092 2.607422,-12.005859 l -1.099609,0.04883 c 0.206035,4.729017 -0.754595,8.740996 -2.435547,11.363281 -3.19079,4.977631 -7.329168,8.217306 -15.044922,8.539063 -0.02021,-4e-5 -8.134497,-0.017 -13.384766,-5.28125 -1.155475,-1.158552 -3.304142,-3.32288 -4.330078,-7.44336 -1.025935,-4.120479 -0.913334,-10.214698 2.689453,-19.177734 1.314866,-3.271126 3.387699,-7.112441 5.882813,-10.105469 2.495114,-2.993027 5.388077,-5.089714 8.291016,-5.109375 5.246109,-0.03553 10.116761,4.484253 13.734375,11.28125 L 59.12113,41.037111 C 55.406704,34.058283 50.283709,29.130137 44.410156,29.169922 Z"
       id="path3" /><path
       style="baseline-shift:baseline;display:inline;overflow:visible;opacity:1;vector-effect:none;enable-background:accumulate;stop-color:#000000;stop-opacity:1"
       d="m 44.449219,32.865234 -5.167969,6.855469 -0.966797,-5.943359 -6.169922,5.324218 0.71875,0.832032 4.679688,-4.039063 1.066406,6.546875 5.667969,-7.521484 4.039062,7.78125 2.736328,-7.201172 5.257813,6.162109 -0.525391,-5.675781 -1.095703,0.101563 0.205078,2.21875 -4.210937,-4.935547 -2.523438,6.642578 z"
       id="path4" /><path
       style="baseline-shift:baseline;display:inline;overflow:visible;opacity:1;vector-effect:none;enable-background:accumulate;stop-color:#000000;stop-opacity:1"
       d="m 34.025391,42.132812 -0.720704,0.75 c 0,0 -1.219221,1.268433 -2.470703,2.560547 -0.62574,0.646057 -1.259582,1.29734 -1.751953,1.798828 -0.246185,0.250745 -0.457825,0.464559 -0.613281,0.619141 -0.07773,0.07729 -0.14183,0.139881 -0.1875,0.183594 -0.04567,0.04371 -0.09831,0.08448 -0.05078,0.04883 l 0.660156,0.880859 c 0.08006,-0.06005 0.09599,-0.0827 0.150391,-0.134765 0.0544,-0.05207 0.122525,-0.117119 0.203125,-0.197266 0.161199,-0.160293 0.375189,-0.376459 0.623046,-0.628906 0.495715,-0.504894 1.129213,-1.157695 1.75586,-1.804688 0.887016,-0.915815 1.318898,-1.364646 1.751953,-1.814453 L 35.597656,55.052734 43,46.708984 l 5.851562,9.080078 3.570313,-9.189453 3.542969,4.160157 0.835937,-0.712891 -4.736328,-5.564453 -3.457031,8.898437 -5.46875,-8.486328 -6.910156,7.791016 z"
       id="path5" /><path
       style="baseline-shift:baseline;display:inline;overflow:visible;opacity:1;vector-effect:none;enable-background:accumulate;stop-color:#000000;stop-opacity:1"
       d="m 29.707031,55.546875 -3.326172,8.425781 1.023438,0.404297 2.193359,-5.558594 4.179688,13.082032 6.123047,-12.472657 5.603515,14.140625 6.523438,-14.578125 0.792968,1.070313 0.884766,-0.654297 -1.912109,-2.582031 -6.226563,13.914062 -5.55664,-14.027344 -6.017579,12.251954 z m 33.119141,2.15625 -3.560547,9.207031 -0.326172,-0.439453 -0.884766,0.654297 1.515625,2.044922 4.28125,-11.070313 z"
       id="path6" /></g><g
     id="g4583"
     transform="matrix(0.03591892,-0.0761319,-0.0761319,-0.03591892,93.670324,97.272717)"
     style="stroke:#000000;stroke-width:13.0673;stroke-linejoin:bevel;stroke-dasharray:none;stroke-opacity:1"><path
       style="baseline-shift:baseline;display:inline;overflow:visible;opacity:1;vector-effect:none;stroke:none;marker:none;enable-background:accumulate;stop-color:#000000;stop-opacity:1"
       d="m 396.7793,524.26172 -6.53321,6.5332 v 101.68164 l 6.53321,6.53321 h 22.83398 l 6.53516,-6.53321 V 530.79492 l -6.53516,-6.5332 z m 6.53515,13.0664 h 9.76563 v 88.61524 h -9.76563 z"
       id="rect3359"
       transform="translate(20.47327,-3.053783)" /><path
       style="baseline-shift:baseline;display:inline;overflow:visible;opacity:1;vector-effect:none;stroke:none;marker:none;enable-background:accumulate;stop-color:#000000;stop-opacity:1"
       d="m 384.69727,524.22266 c -3.70883,0 -6.89844,3.18961 -6.89844,6.89843 v 101.03125 c 0,3.70883 3.18961,6.89844 6.89844,6.89844 h 11.79492 c 3.70882,0 6.89844,-3.18961 6.89843,-6.89844 V 531.12109 c 10e-6,-3.70882 -3.18961,-6.89843 -6.89843,-6.89843 z"
       id="rect4246"
       transform="translate(20.47327,-3.053783)" /><path
       style="baseline-shift:baseline;display:inline;overflow:visible;opacity:1;vector-effect:none;stroke:none;marker:none;enable-background:accumulate;stop-color:#000000;stop-opacity:1"
       d="m 384.25586,524.375 -4.06055,1.41406 -21.15625,16.78321 -2.47265,5.12109 0.0176,67.73047 2.44727,5.0957 21.13867,16.94141 10.61914,-5.09766 V 530.9082 Z m -6.5332,20.05469 v 74.32422 l -8.07227,-6.46875 -0.0176,-61.4375 z"
       id="rect4248"
       transform="translate(20.47327,-3.053783)" /><path
       style="baseline-shift:baseline;display:inline;overflow:visible;opacity:1;vector-effect:none;stroke:none;enable-background:accumulate;stop-color:#000000;stop-opacity:1"
       d="m 362.90039,542.38867 -86.66211,4.24805 -6.21484,6.52539 v 56.94726 l 6.21484,6.5254 86.66211,4.24804 6.85352,-6.52539 v -65.4414 z m -6.21484,13.38867 v 51.7168 l -73.59375,-3.60547 v -44.5039 z"
       id="path1165"
       transform="translate(20.47327,-3.053783)" /><path
       style="baseline-shift:baseline;display:inline;overflow:visible;opacity:1;vector-effect:none;stroke:none;enable-background:accumulate;stop-color:#000000;stop-opacity:1"
       d="m 276.51367,547.84766 -0.14453,0.002 -227.673828,5.0293 -6.109375,4.64453 c -4.888776,16.20567 -4.483941,32.29932 -0.117187,48.0957 l 6.154297,4.79102 227.691403,5.01171 6.67578,-6.52539 0.0566,-54.50781 z m -6.54101,13.21484 -0.043,41.14844 -215.863284,-4.75196 c -2.337175,-10.64298 -2.454214,-21.02959 0.01367,-31.6289 z"
       id="path1176"
       transform="translate(20.47327,-3.053783)" /><path
       style="baseline-shift:baseline;display:block;overflow:visible;opacity:1;vector-effect:none;stroke:none;marker:none;enable-background:accumulate;stop-color:#000000;stop-opacity:1"
       d="m 419.68555,527.27148 -6.53321,6.53321 V 629.4668 L 419.68555,636 h 4.88086 l 6.5332,-6.5332 v -95.66211 l -6.5332,-6.53321 z"
       id="rect1189"
       transform="translate(20.47327,-3.053783)" /><path
       style="baseline-shift:baseline;display:block;overflow:visible;opacity:1;vector-effect:none;stroke:none;marker:none;enable-background:accumulate;stop-color:#000000;stop-opacity:1"
       d="m 424.71289,527.27148 -6.5332,6.53321 v 95.66211 l 6.5332,6.5332 h 0.97266 l 6.5332,-6.5332 v -95.66211 l -6.5332,-6.53321 z"
       id="rect1811"
       transform="translate(20.47327,-3.053783)" /><path
       style="baseline-shift:baseline;display:block;overflow:visible;opacity:1;vector-effect:none;stroke:none;marker:none;enable-background:accumulate;stop-color:#000000;stop-opacity:1"
       d="m 428.28125,553.83789 c -5.40568,0 -9.2168,4.73236 -9.2168,9.53125 v 36.5332 c 0,4.7989 3.81112,9.53321 9.2168,9.53321 h 15.43555 c 5.40567,0 9.21679,-4.73431 9.21679,-9.53321 v -36.5332 c 0,-4.79889 -3.81112,-9.53125 -9.21679,-9.53125 z m 3.85156,13.06641 h 7.73438 v 29.46289 h -7.73438 z"
       id="rect1812"
       transform="translate(20.47327,-3.053783)" /><path
       style="baseline-shift:baseline;display:block;overflow:visible;opacity:1;vector-effect:none;stroke:none;marker:none;enable-background:accumulate;stop-color:#000000;stop-opacity:1"
       d="m 446.74414,555.55859 -6.5332,6.53516 v 39.08594 l 6.5332,6.5332 h 4.90234 l 6.53321,-6.5332 v -39.08594 l -6.53321,-6.53516 z"
       id="rect1813"
       transform="translate(20.47327,-3.053783)" /><path
       style="baseline-shift:baseline;display:block;overflow:visible;opacity:1;vector-effect:none;stroke:none;marker:none;enable-background:accumulate;stop-color:#000000;stop-opacity:1"
       d="m 454.50977,556.30664 -9.41602,5.86328 v 38.93164 l 9.39648,5.87305 5.32422,-2.59375 3.67188,-5.87305 v -33.72265 l -3.6543,-5.86329 z"
       id="rect1814"
       transform="translate(20.47327,-3.053783)" /><path
       style="baseline-shift:baseline;display:block;overflow:visible;opacity:1;vector-effect:none;stroke:none;marker:none;enable-background:accumulate;stop-color:#000000;stop-opacity:1"
       d="m 457.00977,558.2793 -6.53321,6.5332 v 33.64648 l 6.53321,6.53321 h 180.89257 l 6.53516,-6.53321 V 564.8125 l -6.53516,-6.5332 z m 6.5332,13.06836 h 167.82617 v 20.57812 H 463.54297 Z"
       id="rect1818"
       transform="translate(20.47327,-3.053783)" /><path
       style="baseline-shift:baseline;display:block;overflow:visible;opacity:1;vector-effect:none;stroke:none;marker:none;enable-background:accumulate;stop-color:#000000;stop-opacity:1"
       d="m 638.13281,558.29297 -6.53515,6.53711 0.0195,33.61914 11.07031,4.69726 8.75586,-8.44921 1.99609,-4.70899 -0.0195,-16.69922 -1.99023,-4.6875 -8.75391,-8.4707 z"
       id="rect1819"
       transform="translate(20.47327,-3.053783)" /><path
       style="baseline-shift:baseline;display:block;overflow:visible;opacity:1;vector-effect:none;stroke:none;marker:none;enable-background:accumulate;stop-color:#000000;stop-opacity:1"
       d="m 647.47461,566.9082 -7.27734,6.49024 v 16.47461 l 7.27929,6.49023 59.91211,-6.87695 5.78906,-6.49024 v -2.74023 l -5.79101,-6.49024 z m 5.78906,13.81446 7.95117,0.91015 -7.95117,0.91211 z"
       id="rect1823"
       transform="translate(20.47327,-3.053783)" /></g></svg>
